<?xml version="1.0" encoding="utf-8"?>
<svg xmlns="http://www.w3.org/2000/svg" version="1.1" viewBox="0 0 500 91">
	<title>A series of vertical lines with dots on top of each. Some are longer than others, and some branch towards the bottom. One has an X scrawled underneath it.</title>
	<path d="m 454.83794,90.353243 c -1.10524,-1.102758 -0.81822,-1.78038 1.87137,-4.414026 1.40351,-1.375204 2.55187,-2.687536 2.55187,-2.917069 0,-0.229533 -0.67823,-0.749476 -1.50718,-1.15565 -2.31854,-1.135691 -2.98966,-2.604704 -1.64517,-3.60068 1.66097,-1.230498 4.00945,-1.016932 5.02569,0.457071 l 0.87749,1.273411 0.92507,-1.273411 c 1.04616,-1.440072 3.12909,-1.717508 3.12909,-0.416154 0,0.471043 -0.31898,1.389176 -0.70886,2.039853 -0.60627,1.012941 -0.55123,1.278401 0.3804,1.832275 2.36612,1.407139 5.4322,4.513822 5.4322,5.50381 0,1.475999 -1.95475,2.425069 -3.4025,1.651642 -0.62379,-0.333323 -1.13416,-0.82632 -1.13416,-1.095773 0,-0.612754 -3.76782,-2.865174 -4.79351,-2.865174 -0.4175,0 -1.57785,1.273411 -2.57856,2.829247 -1.81111,2.816275 -3.11875,3.451982 -4.42324,2.150628 z m 30.69702,-16.739965 c -2.98293,-2.555804 -6.00197,-4.652541 -6.70057,-4.652541 -1.30575,0 -6.83493,-6.05469 -8.03999,-8.8041 -1.33733,-3.050797 -2.77142,-7.818104 -3.3469,-11.124382 -0.2012,-1.156649 -0.7219,-2.397127 -1.15712,-2.757394 -0.43522,-0.360268 -0.7913,-1.112738 -0.7913,-1.672599 0,-0.558864 -0.34458,-1.737468 -0.76571,-2.618676 -0.42115,-0.881209 -1.68285,-3.51186 -2.8038,-5.847112 -1.12094,-2.334254 -2.19708,-4.817206 -2.39145,-5.517782 -0.19435,-0.699577 -0.57671,-1.272413 -0.8497,-1.272413 -0.47337,0 -4.87065,6.447891 -6.91472,10.139385 -1.38053,2.492932 -4.42125,2.096737 -4.42125,-0.575829 0,-1.062839 4.00635,-6.596588 7.42106,-10.251158 1.54549,-1.654636 2.1036,-2.689532 1.89603,-3.51685 -0.33683,-1.34227 -0.33821,-1.837264 -0.022,-7.822096 0.2002,-3.788298 0.1043,-4.388078 -0.70388,-4.398058 -1.4318,-0.01996 -3.37707,-1.797346 -3.78065,-3.4549756 -0.28418,-1.1676261 0.0299,-1.9320718 1.46249,-3.5607605 1.81507,-2.062806 1.84486,-2.0727857 5.85655,-1.9091185 3.93253,0.1606734 4.03662,0.2035861 4.21193,1.7244939 0.11745,1.0189284 -0.41359,2.4370451 -1.53218,4.090683 l -1.71191,2.5318527 0.46315,5.477862 c 0.25473,3.012875 0.35655,5.885035 0.22627,6.382025 -0.26529,1.01294 1.84524,5.78424 4.29622,9.712253 2.40246,3.85117 6.08948,12.364861 6.49529,14.999504 0.48156,3.125645 2.55368,8.13047 4.08211,9.858955 0.68811,0.778418 1.60356,2.178571 2.03439,3.112672 0.5165,1.119723 1.89814,2.289345 4.05648,3.434018 6.03408,3.200493 10.16599,8.481755 7.44985,9.521641 -1.49788,0.573833 -2.14612,0.375237 -4.01875,-1.2295 z M 108.62685,48.163022 c -0.22637,-0.393201 -0.50197,-5.244338 -0.60285,-10.611425 -0.0573,-3.047804 1.82944,-14.912681 2.6,-16.349759 0.33912,-0.632714 0.70794,-3.276339 0.81958,-5.876053 l 0.203,-4.726391 -2.49934,0.37424 c -2.08808,0.312364 -2.69517,0.178636 -3.68949,-0.813347 -0.65459,-0.6536708 -1.19016,-1.5817838 -1.19016,-2.0628058 0,-1.4640234 2.4484,-3.4270323 5.86935,-4.7044352 4.27222,-1.5947576 5.79089,-1.5508469 6.94219,0.2025881 0.85757,1.306344 0.85858,1.6296866 0.0131,4.2094416 -0.50374,1.5368753 -0.9189,4.5297903 -0.92259,6.6494803 -0.004,2.12967 -0.60512,6.262268 -1.34371,9.23223 -0.73536,2.956988 -1.36095,6.903963 -1.3902,8.771167 -0.13589,8.676359 -0.79611,13.999537 -1.86894,15.070359 -1.08734,1.084795 -2.50449,1.391172 -2.93991,0.63471 z M 4.5618482,38.47472 C 3.1312505,37.56956 2.7640508,33.599632 3.130812,23.002178 L 3.4972531,12.414704 1.7108402,10.74909 C -1.2760256,7.964751 -0.2885914,5.5636329 4.1775453,4.7512845 5.4251265,4.5237471 7.106488,4.2123802 7.9139049,4.0576947 c 1.7869346,-0.3413061 3.3521701,1.0378898 3.3521701,2.954992 0,0.7444864 -0.801434,2.2653942 -1.7809612,3.3781313 L 7.70415,12.415702 7.743601,24.974168 C 7.768757,32.981887 7.567009,37.792108 7.1867991,38.249178 6.4992508,39.076496 5.6303848,39.151344 4.5618453,38.47472 Z M 426.97002,35.892969 c -0.5503,-0.661655 -0.57192,-1.284389 -0.0922,-2.658595 0.34469,-0.985995 0.62671,-2.40511 0.62671,-3.15259 0,-1.639666 -1.50334,-4.69745 -2.30999,-4.69745 -0.90279,0 -3.36083,2.885135 -3.36083,3.94498 0,1.210538 -2.32184,3.412062 -3.59863,3.412062 -1.4972,0 -1.78648,-1.63268 -0.63773,-3.599681 0.57046,-0.977013 2.66529,-3.363162 4.65512,-5.303218 3.65113,-3.558764 3.86007,-4.02781 3.65468,-8.209309 -0.0896,-1.823293 -0.36596,-2.223479 -2.00591,-2.907089 -3.86309,-1.610725 -2.54544,-5.4798589 2.74718,-8.0656017 l 3.16744,-1.547853 2.54877,1.235488 c 2.93792,1.4241046 3.42621,2.2903434 2.70756,4.8012384 -0.38935,1.3602343 -1.00356,1.9689963 -2.48302,2.4609963 -1.40357,0.466053 -1.92483,0.952064 -1.82283,1.697549 1.61372,11.800009 1.70034,18.300792 0.28158,21.135029 -1.09054,2.178571 -2.92995,2.834238 -4.07793,1.454044 z M 217.93066,34.26428 c -0.46658,-1.213533 0.0881,-13.739066 0.77862,-17.581255 0.32867,-1.82928 0.91173,-4.082699 1.29569,-5.007818 0.65489,-1.577792 0.5871,-1.7684046 -1.09494,-3.0827322 -2.89022,-2.2574104 -2.22193,-5.0267798 1.69404,-7.0207258 1.40566,-0.71554517 2.83607,-1.04786949 3.64157,-0.84627935 1.45421,0.36425935 3.88392,3.28631835 4.35579,5.23934755 0.40218,1.6636176 -1.0309,3.5737341 -2.68176,3.5737341 -1.01301,0 -1.41234,0.3802271 -1.63458,1.5558367 -0.63196,3.344201 -1.1323,9.728221 -1.17207,14.954595 -0.0353,4.637571 -0.22397,5.72037 -1.23273,7.074616 -1.32969,1.784372 -3.46482,2.401119 -3.94963,1.140681 z m 27.90082,-4.073717 c -0.95489,-0.953063 -0.7411,-3.519844 0.61237,-7.35305 0.43964,-1.245468 0.94581,-4.046773 1.12482,-6.225343 0.17901,-2.178571 0.53412,-4.368119 0.78914,-4.866107 0.3344,-0.652673 -0.0824,-1.433086 -1.49506,-2.7993085 -2.32742,-2.2514225 -2.49588,-4.0178312 -0.56679,-5.9429172 1.70313,-1.6995445 3.26724,-1.7554309 5.77862,-0.20658 3.33888,2.0598121 3.56397,3.8262208 0.87888,6.8959795 -0.79982,0.9151392 -0.76604,1.1416792 0.37866,2.5468222 1.90247,2.335252 4.97369,9.08453 5.6966,12.518548 0.53886,2.559795 0.50128,3.268355 -0.23268,4.386082 -1.67506,2.550814 -4.2516,1.342271 -4.2516,-1.993946 0,-2.253418 -2.26176,-9.6893 -2.94705,-9.6893 -0.2505,0 -0.45546,0.632713 -0.45546,1.406141 0,0.774425 -0.25228,2.492931 -0.56062,3.820233 -0.30834,1.327301 -0.70114,3.360168 -0.8729,4.517814 -0.29883,2.012908 -1.50454,3.838197 -2.53606,3.838197 -0.26734,0 -0.87073,-0.384219 -1.34087,-0.853265 z M 32.815697,29.346279 c -0.386621,-0.720535 -0.510074,-3.98889 -0.340534,-9.013674 l 0.265964,-7.882972 -1.405979,-0.919132 C 30.56186,11.02453 29.683442,9.9656824 29.38311,9.1772858 28.337929,6.4338636 32.59913,2.7104339 35.851365,3.5247782 c 1.993307,0.4989855 3.022781,3.3072758 2.122919,5.7912255 -0.39577,1.0917803 -0.797456,5.8540973 -0.928528,11.0066223 -0.127054,4.995842 -0.380404,9.324042 -0.562999,9.618444 -0.600377,0.970028 -3.040426,0.573833 -3.66706,-0.594791 z M 282.89268,28.768454 c -0.91136,-1.698547 -1.02594,-15.595292 -0.13589,-16.484485 1.13625,-1.135691 0.8208,-2.179568 -0.65845,-2.179568 -0.83139,0 -1.94421,-0.6846083 -2.83914,-1.7454514 -1.43268,-1.6995446 -1.44624,-1.789362 -0.50889,-3.3731419 1.28317,-2.167593 5.88407,-4.16253687 8.48023,-3.6765251 2.2625,0.4241377 4.17425,2.2783677 4.17425,4.0497662 0,0.7454843 -0.72642,1.8352687 -1.76428,2.6456211 -1.66347,1.2993582 -1.7384,1.5199098 -1.31125,3.8611501 0.24917,1.365224 0.42819,2.609694 0.39779,2.765377 -0.0304,0.155684 -0.22164,3.057783 -0.42503,6.448889 -0.40076,6.681415 -1.24426,8.781146 -3.54051,8.814079 -0.69295,0.01 -1.53072,-0.494993 -1.86883,-1.125711 z M 57.530257,28.638718 c -1.190954,-4.192476 -1.567998,-6.228337 -1.987745,-10.733178 -0.307913,-3.304282 -0.284658,-5.640532 0.06265,-6.293205 0.303769,-0.571837 0.467835,-1.094774 0.364593,-1.161638 -0.103244,-0.06986 -0.88948,-0.5618576 -1.747193,-1.0967704 -1.808358,-1.1287051 -2.064538,-3.1535882 -0.567083,-4.4818876 1.569808,-1.3921695 5.191907,-2.6905298 7.506624,-2.6905298 5.421431,0 7.069549,5.9119801 2.023541,7.258243 -2.323808,0.6207378 -2.712677,2.4220758 -2.358019,10.9247878 0.266105,6.379031 0.189025,7.246268 -0.717125,8.064604 -1.212717,1.094774 -2.303443,1.183593 -2.580247,0.209574 z M 187.69674,27.774475 c -0.30786,-0.573833 -0.3308,-1.376202 -0.0535,-1.870198 0.59052,-1.052859 0.70125,-7.073618 0.20473,-11.131368 l -0.36358,-2.97096 -2.09733,0 c -2.57757,0 -4.69492,-1.9220916 -4.19955,-3.8132466 0.17809,-0.6796183 1.69798,-2.2933374 3.37753,-3.5867077 2.81956,-2.1705869 3.23891,-2.3212805 5.46878,-1.9679988 2.95175,0.4680484 6.0692,1.9520312 6.89728,3.2843225 0.86156,1.3851837 -0.14651,2.8132802 -2.55181,3.6126549 -1.79643,0.5977851 -1.93211,0.8143447 -1.955,3.1126717 -0.036,3.619641 0.15676,3.886099 2.81229,3.886099 3.18947,0 4.67774,1.068827 3.79059,2.723463 -0.35961,0.670636 -1.09368,1.182595 -1.63127,1.138684 -0.53759,-0.03992 -1.71475,-0.03992 -2.61591,0 -1.62668,0.08982 -1.63602,0.110775 -1.29947,2.946011 0.28144,2.372177 0.17451,2.918067 -0.62987,3.217458 -0.53287,0.197598 -1.30231,0.822328 -1.70986,1.388178 -0.94543,1.310336 -2.74673,1.322311 -3.44407,0.01996 z m 156.8695,-0.350288 c -1.6468,-1.247464 -2.22439,-3.803267 -1.68864,-7.473805 0.26807,-1.835268 0.42582,-4.357141 0.35056,-5.601611 -0.0753,-1.245467 -0.15531,-2.581751 -0.17787,-2.970959 -0.0225,-0.389209 -0.40111,-0.707562 -0.84124,-0.707562 -0.92914,0 -3.73645,-3.1476001 -3.73645,-4.1894818 0,-1.9729886 5.56553,-5.1415465 8.13222,-4.6285894 4.22884,0.8432855 5.99734,5.6714691 2.70082,7.3730096 l -1.6428,0.8472776 0.3116,8.308108 c 0.28606,7.626494 0.2259,8.369983 -0.73391,9.070558 -1.27004,0.927115 -1.41753,0.925119 -2.67429,-0.02994 z m 57.3219,0.365257 c -0.0538,-0.233525 -0.11755,-3.607665 -0.14177,-7.498753 l -0.0441,-7.073619 -2.55188,0 -2.55187,0 -0.18124,-2.210505 c -0.0997,-1.2145311 -0.0369,-2.7833415 0.13961,-3.4849151 0.66454,-2.6426271 10.00724,-5.2183902 11.93801,-3.2913082 1.51041,1.5069361 1.08238,4.6096279 -0.91035,6.5985843 -1.60353,1.600745 -1.71622,1.935065 -1.17674,3.493896 0.82532,2.384153 0.3703,10.05855 -0.7213,12.165266 -0.63145,1.218523 -1.30696,1.725492 -2.29756,1.725492 -0.77174,0 -1.44712,-0.190612 -1.50086,-0.424138 z m 90.86757,-2.216493 c -1.34598,-0.941087 -1.53926,-3.754367 -0.59813,-8.707297 0.71974,-3.7873 0.23497,-6.609562 -1.21439,-7.0686282 -1.46829,-0.4650545 -2.87176,-2.7074953 -2.42371,-3.8731254 0.67412,-1.752437 4.81607,-3.6356083 7.31851,-3.3272352 4.22149,0.5209408 5.24612,2.6575967 3.00763,6.2722476 -1.23815,1.9999342 -1.84284,6.5466892 -1.65371,12.4367142 0.13091,4.076711 -1.90542,6.035729 -4.4362,4.267324 z M 162.79049,24.138867 c -1.15149,-1.148665 -0.75123,-7.875987 0.75934,-12.761055 0.3676,-1.189582 0.22599,-1.273411 -2.13643,-1.273411 -2.65323,0 -3.93812,-0.8812086 -4.63892,-3.1825296 -0.27789,-0.9121455 0.0952,-1.6047374 1.55086,-2.8811422 1.68827,-1.478993 2.48105,-1.7224979 6.65005,-2.0438446 5.14798,-0.3951965 6.91035,0.173647 7.49946,2.4210776 0.34348,1.3113339 -0.58214,2.4609964 -2.97382,3.6954865 L 167.9262,8.9257971 167.842,15.57428 c -0.0614,4.847145 -0.31504,6.999768 -0.93639,7.945845 -0.9217,1.404145 -3.01338,1.718506 -4.11515,0.618742 z M 378.1717,23.973203 c -0.49142,-0.590798 -0.63471,-2.531852 -0.47668,-6.458868 l 0.22595,-5.614584 -1.71932,-0.756462 c -2.54647,-1.119724 -2.63862,-3.4430003 -0.23467,-5.9189663 1.22122,-1.2574434 2.38961,-1.9111144 3.41333,-1.9111144 0.8561,0 1.71426,-0.2544826 1.90701,-0.5658495 0.5504,-0.8891922 2.28827,-0.6636507 3.27043,0.4241376 1.74805,1.9360637 1.78243,3.8741234 0.10757,6.0656676 -1.38565,1.812315 -1.51497,2.35621 -1.22613,5.148532 0.23699,2.291342 0.0292,3.973921 -0.78124,6.32514 -1.40044,4.061742 -2.90911,5.15951 -4.48625,3.262367 z M 133.42565,20.016249 c -0.75993,-1.157647 -0.85087,-2.224478 -0.5135,-6.028743 0.36669,-4.1335956 0.31263,-4.5846788 -0.51225,-4.268322 -1.25901,0.48202 -3.51075,-0.446093 -3.96822,-1.6356744 -0.40926,-1.064835 3.35318,-5.0647027 6.6512,-7.0716223 3.28191,-1.99693991 7.74631,-0.8762185 7.74631,1.9440474 0,1.3193176 -2.6711,4.3182204 -3.84557,4.3182204 -0.47322,0 -0.63741,1.7793823 -0.57025,6.1794359 0.10217,6.693392 -0.33473,7.968799 -2.72907,7.968799 -0.79634,0 -1.70788,-0.566848 -2.25865,-1.406141 z M 309.80601,17.76283 c -0.45193,-1.079805 -0.82166,-3.085726 -0.82166,-4.458934 0,-1.5738 -0.32773,-2.766376 -0.88803,-3.230432 -0.48842,-0.4051765 -1.24904,-1.4320886 -1.69031,-2.2843558 -0.71359,-1.3772 -0.69186,-1.6845751 0.19649,-2.7793492 0.58455,-0.7205351 2.04996,-1.4280965 3.53333,-1.7065304 1.39398,-0.2614684 2.94537,-0.6347095 3.44753,-0.8293139 0.55604,-0.2145637 1.62102,0.241509 2.72398,1.1676261 2.38231,2.0009318 2.20759,3.9489711 -0.51803,5.775258 -2.08913,1.4011512 -2.43732,2.6595922 -1.68446,6.0886212 0.55501,2.52786 -0.25161,4.219421 -2.01224,4.219421 -1.13557,0 -1.64963,-0.441103 -2.2866,-1.962011 z M 81.527232,17.35466 C 80.845804,16.084243 80.551566,12.145251 81.031635,10.720149 81.19927,10.222161 80.77177,9.7870461 79.897947,9.5664945 78.929239,9.3209936 78.326375,8.6244099 77.949774,7.313076 77.461811,5.6155274 77.564783,5.2782132 78.928203,4.1075932 c 1.812032,-1.5558367 4.868571,-2.4849477 8.185141,-2.4889396 2.351056,0 2.4101,0.039919 2.4101,1.8711956 0,1.3632283 -0.480759,2.3292642 -1.759747,3.5368091 -1.697136,1.6037394 -1.748189,1.79036 -1.435018,5.2423417 0.295727,3.260371 0.201959,3.702472 -1.049892,4.951932 -1.704468,1.70154 -2.888372,1.743455 -3.751555,0.133728 z"/>
</svg>
